<svg version="1.0" xmlns="http://www.w3.org/2000/svg"
 width="1000.000000pt" height="1000.000000pt" viewBox="0 0 1000.000000 1000.000000"
 preserveAspectRatio="xMidYMid meet">

<g transform="translate(0.000000,1000.000000) scale(0.100000,-0.100000)"
fill="#000000" stroke="none">
<path d="M6155 6876 c-85 -33 -212 -70 -345 -100 -103 -23 -188 -37 -390 -67
-36 -5 -261 -14 -500 -18 -455 -10 -651 -25 -810 -63 -47 -11 -105 -24 -129
-29 -25 -5 -63 -18 -86 -29 -23 -11 -48 -20 -57 -20 -8 0 -32 -11 -52 -25 -20
-14 -40 -25 -43 -25 -29 0 -205 -148 -241 -203 -15 -22 -39 -58 -54 -81 -16
-22 -35 -57 -43 -76 -9 -19 -20 -43 -26 -53 -22 -40 -70 -227 -79 -312 -5 -49
-14 -126 -20 -170 -5 -44 -13 -196 -16 -338 -8 -297 -6 -289 -98 -313 -58 -15
-139 -67 -182 -115 -27 -31 -84 -120 -84 -131 0 -5 -9 -29 -21 -54 -28 -64
-42 -202 -37 -384 5 -153 5 -156 43 -243 60 -139 126 -198 311 -278 34 -14 44
-24 44 -42 0 -12 -5 -28 -12 -35 -16 -16 -620 -17 -649 -2 -16 9 -19 22 -19
83 -1 94 -13 146 -49 199 -39 58 -76 91 -135 122 -41 22 -62 26 -131 26 -68 0
-90 -4 -129 -25 -58 -31 -98 -32 -137 -2 -26 18 -46 23 -122 25 -83 3 -97 1
-140 -22 -59 -32 -99 -33 -138 -3 -26 18 -46 23 -125 25 -86 4 -97 2 -138 -22
-55 -32 -97 -33 -137 -3 -27 20 -42 22 -138 22 -106 0 -107 0 -161 -36 -105
-70 -160 -170 -160 -290 0 -104 3 -103 -204 -109 l-175 -5 -31 -30 c-48 -46
-63 -81 -57 -138 3 -41 11 -56 45 -90 52 -51 77 -55 366 -56 200 -1 222 -3
240 -20 53 -48 193 -67 276 -37 42 16 45 16 70 -3 14 -11 50 -35 80 -53 47
-28 67 -33 132 -36 52 -3 92 1 122 11 l44 15 39 -32 c21 -18 60 -45 88 -61 43
-25 60 -29 126 -29 65 0 83 4 125 28 27 16 63 42 81 59 l32 30 66 -13 c37 -7
97 -10 133 -8 55 4 77 11 123 41 31 19 63 47 72 61 10 14 26 30 36 36 21 11
4886 15 4915 4 9 -3 25 -21 36 -40 12 -19 45 -47 78 -65 47 -26 71 -32 140
-37 50 -3 99 0 126 8 45 12 77 4 101 -26 6 -7 37 -27 69 -45 52 -28 68 -32
135 -31 64 0 84 4 126 28 28 15 65 41 84 57 30 25 38 28 70 20 20 -4 77 -8
126 -8 82 0 95 3 140 30 28 16 56 37 63 47 15 21 81 25 115 7 50 -28 185 -5
249 41 25 18 45 20 255 20 125 0 245 3 266 6 23 4 54 21 80 44 41 37 42 39 42
102 0 57 -3 69 -30 100 -53 63 -53 62 -268 68 -228 6 -227 5 -227 96 0 134
-72 257 -184 313 -61 31 -69 33 -154 30 -75 -3 -96 -8 -121 -26 -39 -30 -72
-29 -137 3 -48 23 -63 26 -143 23 -74 -3 -95 -8 -120 -26 -39 -30 -72 -29
-137 3 -48 23 -63 26 -143 23 -74 -3 -95 -8 -120 -26 -39 -30 -74 -29 -135 2
-41 21 -64 25 -131 25 -69 0 -90 -4 -131 -26 -59 -31 -105 -73 -146 -134 -27
-40 -31 -54 -36 -142 -3 -55 -11 -106 -18 -116 -11 -15 -42 -17 -329 -20 -232
-2 -320 0 -331 9 -20 17 -18 68 4 75 57 19 152 62 182 83 42 30 111 110 133
154 62 128 62 127 62 352 0 207 0 211 -30 295 -59 171 -170 292 -293 321 -26
6 -57 22 -69 36 -21 22 -23 33 -23 156 0 73 -5 184 -10 247 -5 63 -14 185 -20
270 -6 90 -19 186 -30 228 -25 90 -25 121 0 267 23 132 27 363 9 426 -14 45
-54 86 -96 98 -23 7 -41 4 -74 -11 -24 -11 -53 -17 -66 -13 -21 5 -23 11 -23
63 0 68 -14 122 -39 153 -27 34 -109 36 -186 5z m-2188 -1410 c38 -20 178 -63
228 -71 22 -4 63 -13 90 -21 28 -8 110 -21 184 -30 73 -8 165 -19 205 -25 112
-17 571 -14 696 4 58 9 139 19 180 22 41 4 107 15 145 24 39 10 90 22 115 25
52 8 191 50 233 72 16 8 34 14 42 14 14 0 65 -62 65 -81 0 -6 11 -37 24 -68
13 -31 30 -78 37 -106 6 -27 16 -55 21 -61 4 -6 20 -76 35 -155 21 -118 27
-186 32 -375 5 -208 8 -234 25 -253 29 -32 81 -44 164 -39 69 5 78 8 103 36
32 36 46 82 57 183 8 78 21 96 63 86 14 -4 39 -27 56 -51 40 -57 58 -173 50
-321 -7 -118 -17 -150 -60 -188 -35 -30 -44 -33 -126 -41 -100 -10 -174 -84
-185 -185 -9 -89 -46 -191 -70 -196 -12 -3 -637 -4 -1391 -3 l-1369 3 -19 50
c-10 28 -27 90 -37 140 -17 83 -21 92 -63 131 -46 44 -96 64 -162 64 -32 0
-49 8 -83 38 -53 45 -61 76 -62 241 0 168 13 230 60 281 30 33 44 41 66 38 33
-4 38 -15 53 -137 17 -138 53 -171 184 -171 66 0 121 19 136 48 6 11 13 108
16 216 3 108 12 234 20 279 8 45 20 116 26 157 6 41 17 94 26 119 8 25 21 69
29 98 8 30 20 64 28 76 8 12 17 37 21 54 7 33 54 93 73 93 6 0 23 -6 39 -14z
m-2827 -1631 c11 -11 16 -45 18 -125 5 -129 0 -153 -35 -186 -34 -31 -54 -30
-92 5 l-31 29 0 122 c0 67 5 130 11 141 21 40 95 47 129 14z m7830 8 c36 -21
40 -35 40 -166 l0 -109 -34 -34 c-41 -41 -55 -42 -95 -5 l-31 29 0 130 c0 129
0 131 26 151 32 25 57 26 94 4z m-7434 -14 c17 -19 19 -38 19 -196 0 -174 0
-174 -25 -193 -34 -27 -72 -25 -104 5 l-26 24 0 166 c0 163 0 166 25 190 31
32 84 34 111 4z m389 -4 c25 -24 25 -25 25 -230 0 -205 0 -206 -25 -230 -30
-31 -77 -33 -105 -5 -23 23 -22 7 -22 258 0 170 2 195 18 213 25 28 79 25 109
-6z m400 0 c25 -24 25 -27 25 -190 l0 -166 -26 -24 c-48 -44 -106 -27 -124 36
-13 45 -13 264 0 311 18 62 80 79 125 33z m5465 5 c18 -18 20 -33 20 -192 0
-163 -1 -173 -22 -195 -27 -29 -67 -30 -102 -2 l-26 20 0 174 c0 166 1 175 22
195 28 26 82 26 108 0z m400 0 c19 -19 20 -33 20 -235 0 -202 -1 -216 -20
-235 -26 -26 -73 -25 -105 3 l-26 22 0 185 c0 102 0 197 1 212 1 59 87 91 130
48z m390 0 c25 -19 25 -21 28 -184 l4 -166 -30 -30 c-37 -37 -74 -39 -107 -5
-25 24 -25 27 -25 188 0 151 2 166 21 191 25 32 72 35 109 6z"/>
<path d="M4330 4741 c-46 -15 -103 -61 -139 -113 -34 -48 -36 -56 -39 -145 -4
-90 -3 -95 27 -141 38 -59 63 -83 123 -116 39 -22 60 -26 124 -26 68 0 82 3
128 31 102 63 146 137 146 249 0 65 -3 78 -35 130 -22 36 -56 73 -88 96 -49
36 -57 38 -137 41 -47 1 -96 -1 -110 -6z"/>
<path d="M5495 4743 c-57 -16 -131 -86 -171 -163 -29 -56 -23 -164 11 -226 36
-65 59 -89 122 -124 46 -26 63 -30 129 -30 70 0 81 3 136 36 41 25 70 53 96
92 36 54 37 58 37 146 0 87 -2 94 -33 144 -19 28 -57 68 -84 89 -49 35 -55 37
-137 39 -47 2 -95 0 -106 -3z"/>
</g>
</svg>
