<svg version="1.0" xmlns="http://www.w3.org/2000/svg"
 width="1000.000000pt" height="1000.000000pt" viewBox="0 0 1000.000000 1000.000000"
 preserveAspectRatio="xMidYMid meet">

<g transform="translate(0.000000,1000.000000) scale(0.100000,-0.100000)"
fill="#000000" stroke="none">
<path d="M2580 9154 c-178 -38 -350 -176 -436 -349 -69 -140 -64 104 -62
-3212 l3 -2998 22 -65 c67 -196 235 -362 428 -423 l70 -22 3020 0 3020 0 70
22 c196 62 366 232 428 428 l22 70 0 3020 0 3020 -22 70 c-61 193 -227 361
-423 428 l-65 22 -3005 2 c-2549 1 -3015 -1 -3070 -13z m5960 -3529 l0 -2915
-2915 0 -2915 0 0 2915 0 2915 2915 0 2915 0 0 -2915z"/>
<path d="M5811 5013 c-293 -384 -536 -699 -539 -700 -5 -2 -616 773 -695 882
-13 16 -59 -41 -493 -616 -263 -348 -480 -639 -482 -646 -3 -11 388 -13 2027
-13 1319 0 2031 3 2031 10 0 7 -1278 1737 -1310 1773 -4 4 -246 -306 -539
-690z"/>
<path d="M832 4633 l3 -3288 22 -65 c66 -193 230 -357 423 -423 l65 -22 3288
-3 3287 -2 0 315 0 315 -3230 0 -3230 0 0 3230 0 3230 -315 0 -315 0 2 -3287z"/>
</g>
</svg>
