<?xml version="1.0" encoding="UTF-8"?>
<svg xmlns="http://www.w3.org/2000/svg" xmlns:xlink="http://www.w3.org/1999/xlink" width="1000px" height="1000px" viewBox="0 0 1000 1000" version="1.1">
<g id="surface1">
<path style=" stroke:none;fill-rule:nonzero;fill:rgb(0%,0%,0%);fill-opacity:1;" d="M 145.832031 166.667969 L 222.917969 325 L 358.332031 325 L 281.25 166.667969 L 373.957031 166.667969 L 451.042969 325 L 586.457031 325 L 509.375 166.667969 L 602.082031 166.667969 L 679.167969 325 L 814.582031 325 L 737.5 166.667969 L 854.167969 166.667969 C 870.832031 166.667969 885.417969 172.917969 897.917969 185.417969 C 910.417969 197.917969 916.667969 212.5 916.667969 229.167969 L 916.667969 770.832031 C 916.667969 787.5 910.417969 802.082031 897.917969 814.582031 C 885.417969 827.082031 870.832031 833.332031 854.167969 833.332031 L 145.832031 833.332031 C 129.167969 833.332031 114.582031 827.082031 102.082031 814.582031 C 89.582031 802.082031 83.332031 787.5 83.332031 770.832031 L 83.332031 229.167969 C 83.332031 212.5 89.582031 197.917969 102.082031 185.417969 C 114.582031 172.917969 129.167969 166.667969 145.832031 166.667969 Z M 145.832031 387.5 L 145.832031 770.832031 L 854.167969 770.832031 L 854.167969 387.5 Z M 145.832031 387.5 L 145.832031 770.832031 Z M 145.832031 387.5 "/>
</g>
</svg>
