<?xml version="1.0" encoding="UTF-8"?>
<svg xmlns="http://www.w3.org/2000/svg" xmlns:xlink="http://www.w3.org/1999/xlink" width="1000px" height="1000px" viewBox="0 0 1000 1000" version="1.1">
<g id="surface1">
<path style=" stroke:none;fill-rule:nonzero;fill:rgb(0%,0%,0%);fill-opacity:1;" d="M 315.625 684.375 L 596.875 597.917969 L 683.332031 316.667969 L 402.082031 403.125 Z M 499.75 541.667969 C 488.109375 541.667969 478.296875 537.589844 470.3125 529.4375 C 462.328125 521.292969 458.332031 511.394531 458.332031 499.75 C 458.332031 488.109375 462.410156 478.296875 470.5625 470.3125 C 478.707031 462.328125 488.605469 458.332031 500.25 458.332031 C 511.890625 458.332031 521.703125 462.410156 529.6875 470.5625 C 537.671875 478.707031 541.667969 488.605469 541.667969 500.25 C 541.667969 511.890625 537.589844 521.703125 529.4375 529.6875 C 521.292969 537.671875 511.394531 541.667969 499.75 541.667969 Z M 500.28125 916.667969 C 442.824219 916.667969 388.828125 905.730469 338.300781 883.855469 C 287.765625 861.980469 243.578125 832.117188 205.730469 794.269531 C 167.882812 756.421875 138.019531 712.207031 116.144531 661.625 C 94.269531 611.042969 83.332031 556.992188 83.332031 499.480469 C 83.332031 441.964844 94.269531 387.917969 116.144531 337.332031 C 138.019531 286.75 167.882812 242.707031 205.730469 205.207031 C 243.578125 167.707031 287.792969 138.019531 338.375 116.144531 C 388.957031 94.269531 443.007812 83.332031 500.519531 83.332031 C 558.035156 83.332031 612.082031 94.269531 662.667969 116.144531 C 713.25 138.019531 757.292969 167.707031 794.792969 205.207031 C 832.292969 242.707031 861.980469 286.804688 883.855469 337.5 C 905.730469 388.195312 916.667969 442.265625 916.667969 499.71875 C 916.667969 557.175781 905.730469 611.171875 883.855469 661.699219 C 861.980469 712.234375 832.292969 756.359375 794.792969 794.082031 C 757.292969 831.796875 713.195312 861.660156 662.5 883.667969 C 611.804688 905.667969 557.734375 916.667969 500.28125 916.667969 Z M 500.511719 854.167969 C 598.78125 854.167969 682.292969 819.621094 751.042969 750.53125 C 819.792969 681.449219 854.167969 597.765625 854.167969 499.488281 C 854.167969 401.21875 819.792969 317.707031 751.042969 248.957031 C 682.292969 180.207031 598.78125 145.832031 500.511719 145.832031 C 402.234375 145.832031 318.550781 180.207031 249.46875 248.957031 C 180.378906 317.707031 145.832031 401.21875 145.832031 499.488281 C 145.832031 597.765625 180.378906 681.449219 249.46875 750.53125 C 318.550781 819.621094 402.234375 854.167969 500.511719 854.167969 Z M 500 500 Z M 500 500 "/>
</g>
</svg>
