<?xml version="1.0" encoding="UTF-8"?>
<svg xmlns="http://www.w3.org/2000/svg" xmlns:xlink="http://www.w3.org/1999/xlink" width="1000px" height="1000px" viewBox="0 0 1000 1000" version="1.1">
<g id="surface1">
<path style=" stroke:none;fill-rule:nonzero;fill:rgb(0%,0%,0%);fill-opacity:1;" d="M 475 178.5 C 465.5 183.5 453 194.5 447.5 203.5 L 437.5 219.5 L 127.5 222.5 L 127.5 622.5 L 181.5 624 L 235 625.5 L 235 643 C 235 654.5 239 664.5 247 672.5 L 259 684.5 L 244.5 698 C 228.5 713 205 757 205 770.5 C 205 778 200 780 177 781 C 146 782.5 131.5 793.5 144 806 C 153.5 815.5 846.5 815.5 856 806 C 868.5 793.5 854 782.5 824 781 L 796 779.5 L 790.5 757.5 C 782 724 743 679 713.5 668.5 C 710 667.5 715.5 658 727.5 646 L 747.5 625.5 L 872.5 622.5 L 872.5 222.5 L 717.5 221 L 562.5 220 L 554 205.5 C 537 175.5 503.5 164 475 178.5 Z M 521 213.5 C 540 230.5 526.5 265 501 265 C 474 265 460.5 234 478.5 214 C 488.5 203 509 202.5 521 213.5 Z M 442.5 260 C 448.5 278.5 474 295 496.5 295 C 523.5 295 540 286.5 552.5 266.5 L 562.5 250.5 L 704 250 L 845 250 L 845 530 L 744.5 530 L 730 513 C 721.5 503.5 707.5 492.5 698 488 C 661 470.5 602 484 579 515.5 L 568 530 L 500 530 C 432.5 530 431.5 530 419.5 517 C 382.5 476.5 315.5 474.5 271.5 512.5 C 251 530 250.5 530 203 530 L 155 530 L 155 250 L 297 250 C 434 250 439.5 250.5 442.5 260 Z M 698 525.5 C 725 550.5 731.5 577.5 717 608 C 688 669.5 590 649 590 581.5 C 590 536.5 619 508 661.5 511.5 C 677.5 513 689.5 517.5 698 525.5 Z M 380 526.5 C 411.5 543 420.5 563 419 612.5 L 417.5 652.5 L 267.5 652.5 L 266 622.5 C 264 581.5 268 563 283.5 544.5 C 309.5 514 344 507.5 380 526.5 Z M 555 577.5 L 555 595 L 505.5 595 C 453.5 595 450 593.5 450 569.5 C 450 560.5 454 560 502.5 560 L 555 560 Z M 236 580 L 234 595 L 155 595 L 155 565 L 238.5 565 Z M 845 580 L 845 595 L 755 595 L 755 565 L 845 565 Z M 584 645 L 603 664.5 L 580 679.5 C 553 697 532 725 523 756 C 517 775 514.5 777.5 500.5 779 C 491 780 484 778 483 774 C 473.5 742 462 719 447.5 702.5 L 429.5 683.5 L 440 672.5 C 445.5 666.5 451.5 653 453.5 643 L 456.5 625 L 565.5 625 Z M 395.5 701.5 C 418.5 714 442.5 743 448 766 L 451 780 L 234.5 780 L 238 768.5 C 247 738.5 268 714 297.5 698.5 C 321 686 369 687.5 395.5 701.5 Z M 704 699.5 C 728 712 747.5 732.5 757 756 C 761.5 766.5 765 776 765 777.5 C 765 779 716.5 780 657.5 780 C 555.5 780 550 779.5 550 770.5 C 550 753.5 581.5 713.5 604.5 701.5 C 633 686.5 677.5 686 704 699.5 Z M 704 699.5 "/>
<path style=" stroke:none;fill-rule:nonzero;fill:rgb(0%,0%,0%);fill-opacity:1;" d="M 435.5 324.5 C 422 338 419 359.5 421 424 C 422.5 485 428 496.5 456 502.5 C 468 505.5 480.5 500.5 526.5 475 C 557.5 458 586.5 439.5 591.5 434 C 601.5 422 603 395.5 594 384 C 590.5 379.5 563.5 362 534 345.5 C 475 312 452.5 307.5 435.5 324.5 Z M 519.5 373.5 C 547.5 389 570 404.5 570 408 C 570 415.5 475.5 470 463 470 C 456 470 455 461.5 455 407.5 C 455 357.5 456.5 345 462 345 C 466 345 491.5 358 519.5 373.5 Z M 519.5 373.5 "/>
</g>
</svg>
